<?xml version="1.0" encoding="utf-8"?>
<!-- Generator: Adobe Illustrator 21.1.0, SVG Export Plug-In . SVG Version: 6.00 Build 0)  -->
<svg version="1.1" id="Layer_1" xmlns="http://www.w3.org/2000/svg" xmlns:xlink="http://www.w3.org/1999/xlink" x="0px" y="0px"
	 viewBox="0 0 48 48" style="enable-background:new 0 0 48 48;" xml:space="preserve">
<g>
	<path d="M35.6,35.7l0.7-0.7h3.5c-1.8,2.5-4.1,4.5-6.8,6c-2.8,1.5-5.8,2.2-9,2.2c-5.3,0-9.9-1.9-13.6-5.6C6.6,33.9,4.8,29.3,4.8,24
		s1.9-9.9,5.6-13.6c3.8-3.8,8.3-5.6,13.6-5.6c3.2,0,6.2,0.7,9,2.2c2.8,1.5,5.1,3.5,6.8,6h-3.5l-0.7-0.7C32.4,9.1,28.5,7.5,24,7.5
		c-4.6,0-8.5,1.6-11.7,4.8C9.1,15.5,7.5,19.4,7.5,24c0,4.6,1.6,8.5,4.8,11.7c3.2,3.2,7.1,4.8,11.7,4.8
		C28.5,40.5,32.4,38.9,35.6,35.7z M33.5,29.8l4.5-4.5H18.5v-2.8H38l-4.5-4.5l1.9-2l7.8,7.8l-7.8,7.8L33.5,29.8z"/>
</g>
</svg>
