<?xml version="1.0" encoding="utf-8"?>
<!-- Generator: Adobe Illustrator 21.1.0, SVG Export Plug-In . SVG Version: 6.00 Build 0)  -->
<svg version="1.1" id="Layer_1" xmlns="http://www.w3.org/2000/svg" xmlns:xlink="http://www.w3.org/1999/xlink" x="0px" y="0px"
	 viewBox="0 0 48 48" style="enable-background:new 0 0 48 48;" xml:space="preserve">
<style type="text/css">
	.st0{fill:none;stroke:#010101;stroke-width:2;stroke-linecap:round;stroke-linejoin:round;stroke-miterlimit:10;}
	
		.st1{fill:none;stroke:#010101;stroke-width:2;stroke-linecap:round;stroke-linejoin:round;stroke-miterlimit:10;stroke-dasharray:4,6;}
</style>
<g id="arr-axis-angle-rotate">
	<polyline class="st0" points="14,12.1 14,19.4 21.3,19.4 	"/>
	<polyline class="st0" points="12.1,34 19.4,34 19.4,26.7 	"/>
	<path class="st0" d="M19.4,34c-0.8-0.8-1.6-1.5-2.5-2.4C6.1,20.8,0.3,8.1,4.2,4.2C8.1,0.3,20.1,6.1,31,17
		c10.9,10.9,16.6,22.9,12.8,26.8c-2.5,2.5-8.4,1-15.2-3.3"/>
	<path class="st1" d="M14,19.4c0.8-0.8,1.5-1.6,2.4-2.5C27.2,6.1,39.9,0.3,43.8,4.2C47.7,8.1,41.9,20.1,31,31
		C20.1,41.9,8.1,47.7,4.2,43.8c-2.5-2.5-1-8.4,3.3-15.2"/>
</g>
</svg>
