<?xml version="1.0" encoding="utf-8"?>
<!-- Generator: Adobe Illustrator 21.1.0, SVG Export Plug-In . SVG Version: 6.00 Build 0)  -->
<svg version="1.1" id="Layer_1" xmlns="http://www.w3.org/2000/svg" xmlns:xlink="http://www.w3.org/1999/xlink" x="0px" y="0px"
	 viewBox="0 0 48 48" style="enable-background:new 0 0 48 48;" xml:space="preserve">
<style type="text/css">
	.st0{fill:none;stroke:#010101;stroke-width:2;stroke-linecap:round;stroke-linejoin:round;stroke-miterlimit:10;}
</style>
<g id="pre-satchel">
	<path class="st0" d="M43.1,23H4.9C3.9,23,3,22.1,3,21V9h42v12C45,22.1,44.1,23,43.1,23z"/>
	<path class="st0" d="M31,8c0-1.7-1.3-3-3-3h-8c-1.7,0-3,1.3-3,3"/>
	<line class="st0" x1="14" y1="20" x2="14" y2="26"/>
	<line class="st0" x1="34" y1="20" x2="34" y2="26"/>
	<path class="st0" d="M5,23v18.1C5,42.1,5.9,43,6.9,43h34.2c1,0,1.9-0.9,1.9-1.9V23"/>
</g>
</svg>
