<?xml version="1.0" encoding="utf-8"?>
<!-- Generator: Adobe Illustrator 21.1.0, SVG Export Plug-In . SVG Version: 6.00 Build 0)  -->
<svg version="1.1" id="Layer_1" xmlns="http://www.w3.org/2000/svg" xmlns:xlink="http://www.w3.org/1999/xlink" x="0px" y="0px"
	 viewBox="0 0 44 44" style="enable-background:new 0 0 44 44;" xml:space="preserve">
<style type="text/css">
	.st0{fill:none;}
</style>
<path d="M33,4V2h-2v2H13V2h-2v2H6v8v28h24l0.1-0.1c0,0,0,0,0,0c1.3-0.2,2.6-0.6,3.7-1.3c0,0,0.1-0.1,0.1-0.1
	c0.2-0.1,0.3-0.2,0.5-0.3c0.1-0.1,0.1-0.1,0.2-0.2c0.1-0.1,0.3-0.2,0.4-0.3c0.1-0.1,0.2-0.1,0.2-0.2c0.1-0.1,0.2-0.2,0.3-0.4
	c0.1-0.1,0.2-0.2,0.2-0.3c0.1-0.1,0.2-0.2,0.3-0.4c0.1-0.1,0.2-0.2,0.2-0.3c0.1-0.1,0.2-0.2,0.3-0.4c0.1-0.1,0.1-0.2,0.2-0.3
	c0.1-0.1,0.1-0.2,0.2-0.4c0.1-0.1,0.1-0.3,0.2-0.4c0.1-0.1,0.1-0.2,0.2-0.4c0.1-0.1,0.1-0.3,0.2-0.4c0-0.1,0.1-0.2,0.1-0.4
	c0-0.2,0.1-0.3,0.1-0.5c0-0.1,0.1-0.2,0.1-0.3c0-0.2,0.1-0.4,0.1-0.6c0-0.1,0-0.2,0-0.3c0-0.3,0-0.6,0-0.9V12V4H33z M35.7,33.1
	c-0.1,0.2-0.1,0.4-0.2,0.6c0,0.1-0.1,0.1-0.1,0.2c-0.1,0.2-0.2,0.4-0.3,0.6c0,0,0,0,0,0c-0.1,0.2-0.3,0.5-0.5,0.7
	c0,0-0.1,0.1-0.1,0.1c-0.1,0.2-0.3,0.4-0.5,0.5c0,0-0.1,0.1-0.1,0.1c-0.4,0.4-0.8,0.7-1.2,1c-0.1,0-0.1,0.1-0.2,0.1
	c-0.2,0.1-0.3,0.2-0.5,0.3c-0.1,0-0.1,0.1-0.2,0.1c-0.2,0.1-0.4,0.2-0.7,0.3c0,0-0.1,0-0.1,0V33L35.7,33.1
	C35.7,33,35.7,33.1,35.7,33.1z M36,31h-7v7H8V12h28V31z"/>
<rect class="st0" width="44" height="44"/>
</svg>
