<?xml version="1.0" encoding="utf-8"?>
<!-- Generator: Adobe Illustrator 21.1.0, SVG Export Plug-In . SVG Version: 6.00 Build 0)  -->
<svg version="1.1" id="Layer_1" xmlns="http://www.w3.org/2000/svg" xmlns:xlink="http://www.w3.org/1999/xlink" x="0px" y="0px"
	 viewBox="0 0 48 48" style="enable-background:new 0 0 48 48;" xml:space="preserve">
<style type="text/css">
	.st0{fill:none;stroke:#010101;stroke-width:2;stroke-linecap:round;stroke-linejoin:round;stroke-miterlimit:10;}
</style>
<g id="gen-cog">
	<circle class="st0" cx="24" cy="24" r="8.1"/>
	<path class="st0" d="M15,37.4l-2.2,2.2c-0.6,0.6-1.6,0.6-2.2,0l-2.2-2.2c-0.6-0.6-0.6-1.6,0-2.2l2.2-2.2c-1.1-1.7-2-3.7-2.4-5.7
		H4.6c-0.9,0-1.6-0.7-1.6-1.6v-3.2c0-0.9,0.7-1.6,1.6-1.6h3.6c0.4-2.1,1.2-4,2.4-5.7l-2.2-2.2c-0.6-0.6-0.6-1.6,0-2.2l2.2-2.2
		c0.6-0.6,1.6-0.6,2.2,0l2.2,2.2c1.7-1.1,3.6-2,5.7-2.4V4.6c0-0.9,0.7-1.6,1.6-1.6h3.2c0.9,0,1.6,0.7,1.6,1.6v3.6
		c2.1,0.4,4,1.2,5.7,2.4l2.2-2.2c0.6-0.6,1.6-0.6,2.2,0l2.2,2.2c0.6,0.6,0.6,1.6,0,2.2L37.4,15c1.1,1.7,2,3.7,2.4,5.7h3.6
		c0.9,0,1.6,0.7,1.6,1.6v3.2c0,0.9-0.7,1.6-1.6,1.6h-3.6c-0.4,2.1-1.2,4-2.4,5.7l2.2,2.2c0.6,0.6,0.6,1.6,0,2.2l-2.2,2.2
		c-0.6,0.6-1.6,0.6-2.2,0L33,37.4c-1.7,1.1-3.7,2-5.7,2.4v3.6c0,0.9-0.7,1.6-1.6,1.6h-3.2c-0.9,0-1.6-0.7-1.6-1.6v-3.6
		C18.7,39.4,16.7,38.6,15,37.4z"/>
</g>
</svg>
