<?xml version="1.0" encoding="utf-8"?>
<!-- Generator: Adobe Illustrator 21.1.0, SVG Export Plug-In . SVG Version: 6.00 Build 0)  -->
<svg version="1.1" id="Layer_1" xmlns="http://www.w3.org/2000/svg" xmlns:xlink="http://www.w3.org/1999/xlink" x="0px" y="0px"
	 viewBox="0 0 48 48" style="enable-background:new 0 0 48 48;" xml:space="preserve">
<path d="M47.3,41L25.7,3.7c-0.8-1.3-2.7-1.3-3.5,0L0.7,41c-0.8,1.3,0.2,3,1.7,3h43.1C47.1,44,48,42.3,47.3,41z M26.1,13.6l-0.3,16.9
	h-3.5l-0.4-16.9H26.1z M26,38.5c-0.5,0.5-1.1,0.7-1.9,0.7s-1.5-0.2-2-0.7s-0.7-1.1-0.7-1.9c0-0.8,0.2-1.5,0.7-2s1.1-0.7,2-0.7
	c0.8,0,1.4,0.2,1.9,0.7s0.7,1.1,0.7,2C26.7,37.4,26.4,38,26,38.5z"/>
</svg>
